<svg width="20.000000" height="20.000000" viewBox="0 0 20 20" fill="none" xmlns="http://www.w3.org/2000/svg" xmlns:xlink="http://www.w3.org/1999/xlink">
	<desc>
			Created with Pixso.
	</desc>
	<defs>
		<clipPath id="clip18052_2544">
			<rect id="clapperboard" width="20.000000" height="20.000000" fill="white" fill-opacity="0"/>
		</clipPath>
	</defs>
	<rect id="clapperboard" width="20.000000" height="20.000000" fill="#FFFFFF" fill-opacity="0"/>
	<g clip-path="url(#clip18052_2544)">
		<path id="Vector" d="M12.31 14.27L8.48 12.06C8.42 12.03 8.36 12.01 8.29 12.01C8.22 12.01 8.15 12.03 8.09 12.06C8.03 12.09 7.98 12.14 7.95 12.2C7.91 12.26 7.9 12.33 7.9 12.4L7.9 16.82C7.9 16.89 7.91 16.95 7.95 17.01C7.98 17.07 8.03 17.12 8.09 17.16C8.15 17.19 8.22 17.21 8.29 17.21C8.36 17.21 8.42 17.19 8.48 17.16L12.31 14.95C12.37 14.91 12.41 14.86 12.45 14.8C12.48 14.74 12.5 14.68 12.5 14.61C12.5 14.54 12.48 14.47 12.45 14.41C12.41 14.35 12.37 14.3 12.31 14.27ZM8.68 16.14L8.68 13.08L11.33 14.61L8.68 16.14Z" fill="#000000" fill-opacity="1.000000" fill-rule="nonzero"/>
		<path id="Vector" d="M18.82 6.17L5.25 6.17L18.62 3.81C18.92 3.76 19.2 3.59 19.37 3.33C19.55 3.08 19.62 2.76 19.57 2.46L19.31 0.98C19.21 0.36 18.57 -0.09 17.95 0.03L0.96 3.03C0.66 3.08 0.39 3.25 0.21 3.51C0.03 3.76 -0.04 4.08 0.01 4.38L0.4 6.6L0.4 18.81C0.4 19.12 0.53 19.42 0.75 19.64C0.97 19.86 1.26 19.98 1.58 19.98L18.82 19.98C19.13 19.98 19.43 19.86 19.65 19.64C19.87 19.42 20 19.12 20 18.81L20 7.34C20 7.03 19.87 6.74 19.65 6.52C19.43 6.3 19.13 6.17 18.82 6.17ZM19.21 7.34L19.21 9.24L16.19 9.24L17.02 6.95L18.82 6.95C18.93 6.95 19.03 7 19.1 7.07C19.17 7.14 19.21 7.24 19.21 7.34ZM1.18 9.24L1.18 6.95L5.13 6.95L4.3 9.24L1.18 9.24ZM5.96 6.95L8.81 6.95L7.99 9.24L5.14 9.24L5.96 6.95ZM9.65 6.95L12.5 6.95L11.67 9.24L8.82 9.24L9.65 6.95ZM13.33 6.95L16.18 6.95L15.36 9.24L12.5 9.24L13.33 6.95ZM12.14 4.16L9.48 4.63L8.62 2.47L11.28 2L12.14 4.16ZM12.06 1.86L14.79 1.38L15.65 3.54L12.92 4.02L12.06 1.86ZM8.69 4.77L6.04 5.24L5.18 3.08L7.83 2.61L8.69 4.77ZM18.09 0.8C18.11 0.79 18.13 0.79 18.15 0.79C18.25 0.79 18.33 0.82 18.41 0.88C18.48 0.94 18.52 1.02 18.54 1.11L18.8 2.59C18.81 2.64 18.81 2.69 18.8 2.74C18.78 2.79 18.76 2.84 18.73 2.88C18.7 2.93 18.67 2.96 18.62 2.99C18.58 3.02 18.53 3.04 18.48 3.04L16.43 3.41L15.57 1.24L18.09 0.8ZM1.1 3.8L4.39 3.22L5.25 5.38L1.11 6.11L0.78 4.25C0.76 4.15 0.79 4.04 0.85 3.96C0.91 3.87 1 3.82 1.1 3.8ZM18.82 19.2L1.57 19.2C1.47 19.2 1.37 19.16 1.3 19.09C1.23 19.01 1.18 18.91 1.18 18.81L1.18 10.02L19.21 10.02L19.21 18.81C19.21 18.91 19.17 19.01 19.1 19.09C19.03 19.16 18.93 19.2 18.82 19.2Z" fill="#000000" fill-opacity="1.000000" fill-rule="nonzero"/>
		<path id="Vector" d="M2.91 7.82C2.86 7.77 2.79 7.73 2.72 7.71C2.65 7.7 2.57 7.7 2.5 7.73C2.43 7.75 2.37 7.8 2.33 7.85C2.28 7.91 2.25 7.98 2.25 8.06C2.24 8.13 2.25 8.2 2.29 8.27C2.32 8.34 2.37 8.39 2.43 8.43C2.5 8.47 2.57 8.49 2.65 8.48C2.72 8.48 2.79 8.46 2.85 8.42C2.9 8.39 2.94 8.34 2.97 8.29C3 8.25 3.02 8.19 3.02 8.13C3.03 8.08 3.02 8.02 3 7.96C2.98 7.91 2.95 7.86 2.91 7.82Z" fill="#000000" fill-opacity="1.000000" fill-rule="nonzero"/>
		<path id="Vector" d="M1.98 4.88C1.99 4.91 2 4.93 2.02 4.95C2.05 5 2.09 5.04 2.14 5.07C2.19 5.1 2.25 5.12 2.3 5.12C2.36 5.13 2.42 5.12 2.47 5.1C2.53 5.08 2.58 5.05 2.62 5.01C2.89 4.74 2.64 4.28 2.27 4.35C2.21 4.36 2.16 4.39 2.11 4.42C2.06 4.46 2.03 4.5 2 4.55C1.97 4.6 1.96 4.66 1.95 4.72C1.95 4.77 1.96 4.83 1.98 4.88Z" fill="#000000" fill-opacity="1.000000" fill-rule="nonzero"/>
	</g>
</svg>
