<svg width="40.000000" height="40.000000" viewBox="0 0 40 40" fill="none" xmlns="http://www.w3.org/2000/svg" xmlns:xlink="http://www.w3.org/1999/xlink">
	<desc>
			Created with Pixso.
	</desc>
	<defs>
		<clipPath id="clip18052_2551">
			<rect id="clapperboard" width="20.000000" height="20.000000" transform="translate(10.000000 10.000000)" fill="white" fill-opacity="0"/>
		</clipPath>
	</defs>
	<circle id="Ellipse 1" cx="20.000000" cy="20.000000" r="19.750000" stroke="#F1F1F1" stroke-opacity="1.000000" stroke-width="0.500000"/>
	<rect id="clapperboard" width="20.000000" height="20.000000" transform="translate(10.000000 10.000000)" fill="#FFFFFF" fill-opacity="0"/>
	<g clip-path="url(#clip18052_2551)">
		<path id="Vector" d="M22.31 24.27L18.48 22.06C18.42 22.03 18.36 22.01 18.29 22.01C18.22 22.01 18.15 22.03 18.09 22.06C18.03 22.09 17.98 22.14 17.95 22.2C17.91 22.26 17.9 22.33 17.9 22.4L17.9 26.82C17.9 26.89 17.91 26.95 17.95 27.01C17.98 27.07 18.03 27.12 18.09 27.16C18.15 27.19 18.22 27.21 18.29 27.21C18.36 27.21 18.42 27.19 18.48 27.16L22.31 24.95C22.37 24.91 22.41 24.86 22.45 24.8C22.48 24.74 22.5 24.68 22.5 24.61C22.5 24.54 22.48 24.47 22.45 24.41C22.41 24.35 22.37 24.3 22.31 24.27ZM18.68 26.14L18.68 23.08L21.33 24.61L18.68 26.14Z" fill="#B7B7B7" fill-opacity="1.000000" fill-rule="nonzero"/>
		<path id="Vector" d="M28.82 16.17L15.25 16.17L28.62 13.81C28.92 13.76 29.2 13.59 29.37 13.33C29.55 13.08 29.62 12.76 29.57 12.46L29.31 10.98C29.21 10.36 28.57 9.91 27.95 10.03L10.96 13.03C10.66 13.08 10.39 13.25 10.21 13.51C10.03 13.76 9.96 14.08 10.01 14.38L10.4 16.6L10.4 28.81C10.4 29.12 10.53 29.42 10.75 29.64C10.97 29.86 11.26 29.98 11.58 29.98L28.82 29.98C29.13 29.98 29.43 29.86 29.65 29.64C29.87 29.42 30 29.12 30 28.81L30 17.34C30 17.03 29.87 16.74 29.65 16.52C29.43 16.3 29.13 16.17 28.82 16.17ZM29.21 17.34L29.21 19.24L26.19 19.24L27.02 16.95L28.82 16.95C28.93 16.95 29.03 17 29.1 17.07C29.17 17.14 29.21 17.24 29.21 17.34ZM11.18 19.24L11.18 16.95L15.13 16.95L14.3 19.24L11.18 19.24ZM15.96 16.95L18.82 16.95L17.99 19.24L15.14 19.24L15.96 16.95ZM19.65 16.95L22.5 16.95L21.67 19.24L18.82 19.24L19.65 16.95ZM23.33 16.95L26.18 16.95L25.36 19.24L22.5 19.24L23.33 16.95ZM22.14 14.16L19.48 14.63L18.62 12.47L21.28 12L22.14 14.16ZM22.06 11.86L24.79 11.38L25.65 13.54L22.92 14.02L22.06 11.86ZM18.69 14.77L16.04 15.24L15.18 13.08L17.83 12.61L18.69 14.77ZM28.09 10.8C28.11 10.79 28.13 10.79 28.15 10.79C28.25 10.79 28.33 10.82 28.41 10.88C28.48 10.94 28.52 11.02 28.54 11.11L28.8 12.59C28.81 12.64 28.81 12.69 28.8 12.74C28.78 12.79 28.76 12.84 28.73 12.88C28.7 12.93 28.67 12.96 28.62 12.99C28.58 13.02 28.53 13.04 28.48 13.04L26.43 13.41L25.57 11.24L28.09 10.8ZM11.1 13.8L14.39 13.22L15.25 15.38L11.11 16.11L10.78 14.25C10.76 14.15 10.79 14.04 10.85 13.96C10.91 13.87 11 13.82 11.1 13.8ZM28.82 29.2L11.57 29.2C11.47 29.2 11.37 29.16 11.3 29.09C11.23 29.01 11.18 28.91 11.18 28.81L11.18 20.02L29.21 20.02L29.21 28.81C29.21 28.91 29.17 29.01 29.1 29.09C29.03 29.16 28.93 29.2 28.82 29.2Z" fill="#B7B7B7" fill-opacity="1.000000" fill-rule="nonzero"/>
		<path id="Vector" d="M12.91 17.82C12.86 17.77 12.79 17.73 12.72 17.71C12.65 17.7 12.57 17.7 12.5 17.73C12.43 17.75 12.37 17.8 12.33 17.85C12.28 17.91 12.25 17.98 12.25 18.06C12.24 18.13 12.25 18.2 12.29 18.27C12.32 18.34 12.37 18.39 12.43 18.43C12.5 18.47 12.57 18.49 12.65 18.49C12.72 18.48 12.79 18.46 12.85 18.42C12.9 18.39 12.94 18.34 12.97 18.29C13 18.25 13.02 18.19 13.02 18.13C13.03 18.08 13.02 18.02 13 17.96C12.98 17.91 12.95 17.86 12.91 17.82Z" fill="#B7B7B7" fill-opacity="1.000000" fill-rule="nonzero"/>
		<path id="Vector" d="M11.98 14.88C11.99 14.91 12 14.93 12.02 14.95C12.05 15 12.09 15.04 12.14 15.07C12.19 15.1 12.25 15.12 12.3 15.12C12.36 15.13 12.42 15.12 12.47 15.1C12.53 15.08 12.58 15.05 12.62 15.01C12.89 14.74 12.64 14.28 12.27 14.35C12.21 14.36 12.16 14.39 12.11 14.42C12.06 14.46 12.03 14.5 12 14.55C11.97 14.6 11.96 14.66 11.95 14.72C11.95 14.77 11.96 14.83 11.98 14.88Z" fill="#B7B7B7" fill-opacity="1.000000" fill-rule="nonzero"/>
	</g>
</svg>
